# xmcd CD database file
#
# Track frame offsets:
#	183
#	12933
#	26470
#	38408
#	51458
#	64883
#	77433
#	91583
#	105958
#	119383
#	130958
#	145783
#	158233
#	173283
#	186383
#	198133
#	222033
#	246158
#	259808
#	272445
#	285308
#	299058
#	312395
#	342608
#
# Disc length: 4719 seconds
#
# Revision: 2
# Processed by: cddbd v1.5.1PL0 Copyright (c) Steve Scherf et al.
# Submitted via: jetAudio 5
#
DISCID=4f126d18
DTITLE=Various Artist - Blues Night
DYEAR=1900
DGENRE=
TTITLE0=Hound Dog
TTITLE1=Good Morning Little School Girl
TTITLE2=Joliet Blues
TTITLE3=Pinetop's Blues
TTITLE4=Dive Bomber
TTITLE5=I'm In The Mood
TTITLE6=Rolling Stone
TTITLE7=Reconsider Baby
TTITLE8=The World Is a Tangle
TTITLE9=I Smell Trouble
TTITLE10=Baby Please Don't Go
TTITLE11=Spoonful
TTITLE12=Pain In My Heart
TTITLE13=Seventh Son
TTITLE14=Bring It On Home
TTITLE15=Bags Under My Eyes
TTITLE16=Standing On The Edge
TTITLE17=One Scotch, One Bourbon, One Bear
TTITLE18=Hoochie Coochie Man
TTITLE19=Back Door Man
TTITLE20=Wang Dang Doodle
TTITLE21=Mannish Boy
TTITLE22=I Can't Quit You Baby
TTITLE23=Who Do You Love?
EXTD=
EXTT0=
EXTT1=
EXTT2=
EXTT3=
EXTT4=
EXTT5=
EXTT6=
EXTT7=
EXTT8=
EXTT9=
EXTT10=
EXTT11=
EXTT12=
EXTT13=
EXTT14=
EXTT15=
EXTT16=
EXTT17=
EXTT18=
EXTT19=
EXTT20=
EXTT21=
EXTT22=
EXTT23=
PLAYORDER=
